<mxfile host="app.diagrams.net" modified="2021-09-13T22:26:10.194Z" agent="5.0 (Windows NT 10.0; Win64; x64) AppleWebKit/537.36 (KHTML, like Gecko) Chrome/93.0.4577.63 Safari/537.36" etag="QlmZ1rKbhO8GuS13hHs5" version="15.2.5" type="github">
  <diagram id="I8-HNgFHKU8eqjVsYbC4" name="Page-1">
    <mxGraphModel dx="1695" dy="450" grid="1" gridSize="10" guides="1" tooltips="1" connect="1" arrows="1" fold="1" page="1" pageScale="1" pageWidth="827" pageHeight="1169" math="0" shadow="0">
      <root>
        <mxCell id="0" />
        <mxCell id="1" parent="0" />
        <mxCell id="4Km1RIQBrni5Gd_6iD3i-5" style="edgeStyle=orthogonalEdgeStyle;rounded=0;orthogonalLoop=1;jettySize=auto;html=1;exitX=0.5;exitY=1;exitDx=0;exitDy=0;entryX=0.5;entryY=0;entryDx=0;entryDy=0;" parent="1" source="4Km1RIQBrni5Gd_6iD3i-1" target="4Km1RIQBrni5Gd_6iD3i-2" edge="1">
          <mxGeometry relative="1" as="geometry" />
        </mxCell>
        <mxCell id="4Km1RIQBrni5Gd_6iD3i-1" value="Start" style="rounded=1;whiteSpace=wrap;html=1;strokeColor=#006600;strokeWidth=1;" parent="1" vertex="1">
          <mxGeometry x="-54" y="70" width="102" height="40" as="geometry" />
        </mxCell>
        <mxCell id="4Km1RIQBrni5Gd_6iD3i-3" style="edgeStyle=orthogonalEdgeStyle;rounded=0;orthogonalLoop=1;jettySize=auto;html=1;exitX=1;exitY=0.5;exitDx=0;exitDy=0;entryX=0;entryY=0.5;entryDx=0;entryDy=0;" parent="1" source="4Km1RIQBrni5Gd_6iD3i-2" target="4Km1RIQBrni5Gd_6iD3i-12" edge="1">
          <mxGeometry relative="1" as="geometry">
            <mxPoint x="98" y="190" as="targetPoint" />
          </mxGeometry>
        </mxCell>
        <mxCell id="4Km1RIQBrni5Gd_6iD3i-4" style="edgeStyle=orthogonalEdgeStyle;rounded=0;orthogonalLoop=1;jettySize=auto;html=1;exitX=0;exitY=0.5;exitDx=0;exitDy=0;entryX=1;entryY=0.5;entryDx=0;entryDy=0;" parent="1" source="4Km1RIQBrni5Gd_6iD3i-2" target="4Km1RIQBrni5Gd_6iD3i-15" edge="1">
          <mxGeometry relative="1" as="geometry">
            <mxPoint x="-132" y="190" as="targetPoint" />
          </mxGeometry>
        </mxCell>
        <mxCell id="4Km1RIQBrni5Gd_6iD3i-6" style="edgeStyle=orthogonalEdgeStyle;rounded=0;orthogonalLoop=1;jettySize=auto;html=1;exitX=0.5;exitY=1;exitDx=0;exitDy=0;entryX=0.5;entryY=0;entryDx=0;entryDy=0;" parent="1" source="4Km1RIQBrni5Gd_6iD3i-2" target="4Km1RIQBrni5Gd_6iD3i-13" edge="1">
          <mxGeometry relative="1" as="geometry">
            <mxPoint x="-3" y="270" as="targetPoint" />
          </mxGeometry>
        </mxCell>
        <mxCell id="4Km1RIQBrni5Gd_6iD3i-2" value="Existing User" style="rhombus;whiteSpace=wrap;html=1;strokeColor=#006600;strokeWidth=1;" parent="1" vertex="1">
          <mxGeometry x="-48.5" y="150" width="91" height="80" as="geometry" />
        </mxCell>
        <mxCell id="4Km1RIQBrni5Gd_6iD3i-7" value="Yes" style="text;html=1;align=center;verticalAlign=middle;whiteSpace=wrap;rounded=0;" parent="1" vertex="1">
          <mxGeometry x="-12" y="230" width="40" height="20" as="geometry" />
        </mxCell>
        <mxCell id="4Km1RIQBrni5Gd_6iD3i-9" value="No" style="text;html=1;align=center;verticalAlign=middle;whiteSpace=wrap;rounded=0;" parent="1" vertex="1">
          <mxGeometry x="42" y="170" width="40" height="20" as="geometry" />
        </mxCell>
        <mxCell id="4Km1RIQBrni5Gd_6iD3i-10" value="Admin" style="text;html=1;align=center;verticalAlign=middle;whiteSpace=wrap;rounded=0;" parent="1" vertex="1">
          <mxGeometry x="-94" y="170" width="40" height="20" as="geometry" />
        </mxCell>
        <mxCell id="4Km1RIQBrni5Gd_6iD3i-12" value="SignUp" style="rounded=0;whiteSpace=wrap;html=1;strokeColor=#006600;strokeWidth=1;" parent="1" vertex="1">
          <mxGeometry x="98" y="165" width="90" height="50" as="geometry" />
        </mxCell>
        <mxCell id="4Km1RIQBrni5Gd_6iD3i-31" style="edgeStyle=orthogonalEdgeStyle;rounded=0;orthogonalLoop=1;jettySize=auto;html=1;exitX=0.5;exitY=1;exitDx=0;exitDy=0;entryX=0.5;entryY=0;entryDx=0;entryDy=0;" parent="1" source="4Km1RIQBrni5Gd_6iD3i-13" target="4Km1RIQBrni5Gd_6iD3i-29" edge="1">
          <mxGeometry relative="1" as="geometry" />
        </mxCell>
        <mxCell id="4Km1RIQBrni5Gd_6iD3i-13" value="User Login" style="rounded=0;whiteSpace=wrap;html=1;shadow=0;strokeColor=#006600;strokeWidth=1;" parent="1" vertex="1">
          <mxGeometry x="-50.75" y="260" width="95.5" height="40" as="geometry" />
        </mxCell>
        <mxCell id="4Km1RIQBrni5Gd_6iD3i-176" style="edgeStyle=orthogonalEdgeStyle;rounded=0;orthogonalLoop=1;jettySize=auto;html=1;exitX=0;exitY=0.5;exitDx=0;exitDy=0;entryX=0.5;entryY=0;entryDx=0;entryDy=0;" parent="1" source="4Km1RIQBrni5Gd_6iD3i-15" target="4Km1RIQBrni5Gd_6iD3i-174" edge="1">
          <mxGeometry relative="1" as="geometry" />
        </mxCell>
        <mxCell id="4Km1RIQBrni5Gd_6iD3i-177" style="edgeStyle=orthogonalEdgeStyle;rounded=0;orthogonalLoop=1;jettySize=auto;html=1;exitX=0;exitY=0.5;exitDx=0;exitDy=0;entryX=0.5;entryY=0;entryDx=0;entryDy=0;" parent="1" source="4Km1RIQBrni5Gd_6iD3i-15" target="4Km1RIQBrni5Gd_6iD3i-172" edge="1">
          <mxGeometry relative="1" as="geometry" />
        </mxCell>
        <mxCell id="4Km1RIQBrni5Gd_6iD3i-178" style="edgeStyle=orthogonalEdgeStyle;rounded=0;orthogonalLoop=1;jettySize=auto;html=1;exitX=0;exitY=0.5;exitDx=0;exitDy=0;entryX=0.5;entryY=0;entryDx=0;entryDy=0;" parent="1" source="4Km1RIQBrni5Gd_6iD3i-15" target="4Km1RIQBrni5Gd_6iD3i-161" edge="1">
          <mxGeometry relative="1" as="geometry" />
        </mxCell>
        <mxCell id="4Km1RIQBrni5Gd_6iD3i-180" style="edgeStyle=orthogonalEdgeStyle;rounded=0;orthogonalLoop=1;jettySize=auto;html=1;exitX=0;exitY=0.5;exitDx=0;exitDy=0;entryX=0.5;entryY=0;entryDx=0;entryDy=0;" parent="1" source="4Km1RIQBrni5Gd_6iD3i-15" target="4Km1RIQBrni5Gd_6iD3i-179" edge="1">
          <mxGeometry relative="1" as="geometry" />
        </mxCell>
        <mxCell id="4Km1RIQBrni5Gd_6iD3i-15" value="Admin Login" style="rounded=0;whiteSpace=wrap;html=1;strokeColor=#006600;strokeWidth=1;" parent="1" vertex="1">
          <mxGeometry x="-182" y="167.5" width="82" height="45" as="geometry" />
        </mxCell>
        <mxCell id="4Km1RIQBrni5Gd_6iD3i-60" style="edgeStyle=orthogonalEdgeStyle;rounded=0;orthogonalLoop=1;jettySize=auto;html=1;exitX=0.5;exitY=1;exitDx=0;exitDy=0;entryX=0.5;entryY=0;entryDx=0;entryDy=0;" parent="1" source="4Km1RIQBrni5Gd_6iD3i-16" target="4Km1RIQBrni5Gd_6iD3i-52" edge="1">
          <mxGeometry relative="1" as="geometry" />
        </mxCell>
        <mxCell id="4Km1RIQBrni5Gd_6iD3i-61" style="edgeStyle=orthogonalEdgeStyle;rounded=0;orthogonalLoop=1;jettySize=auto;html=1;exitX=0.5;exitY=1;exitDx=0;exitDy=0;entryX=0.5;entryY=0;entryDx=0;entryDy=0;" parent="1" source="4Km1RIQBrni5Gd_6iD3i-16" target="4Km1RIQBrni5Gd_6iD3i-53" edge="1">
          <mxGeometry relative="1" as="geometry" />
        </mxCell>
        <mxCell id="4Km1RIQBrni5Gd_6iD3i-62" style="edgeStyle=orthogonalEdgeStyle;rounded=0;orthogonalLoop=1;jettySize=auto;html=1;exitX=0.5;exitY=1;exitDx=0;exitDy=0;" parent="1" source="4Km1RIQBrni5Gd_6iD3i-16" target="4Km1RIQBrni5Gd_6iD3i-54" edge="1">
          <mxGeometry relative="1" as="geometry" />
        </mxCell>
        <mxCell id="4Km1RIQBrni5Gd_6iD3i-63" style="edgeStyle=orthogonalEdgeStyle;rounded=0;orthogonalLoop=1;jettySize=auto;html=1;exitX=0.5;exitY=1;exitDx=0;exitDy=0;" parent="1" source="4Km1RIQBrni5Gd_6iD3i-16" target="4Km1RIQBrni5Gd_6iD3i-55" edge="1">
          <mxGeometry relative="1" as="geometry" />
        </mxCell>
        <mxCell id="4Km1RIQBrni5Gd_6iD3i-64" style="edgeStyle=orthogonalEdgeStyle;rounded=0;orthogonalLoop=1;jettySize=auto;html=1;exitX=0.5;exitY=1;exitDx=0;exitDy=0;" parent="1" source="4Km1RIQBrni5Gd_6iD3i-16" target="4Km1RIQBrni5Gd_6iD3i-56" edge="1">
          <mxGeometry relative="1" as="geometry" />
        </mxCell>
        <mxCell id="4Km1RIQBrni5Gd_6iD3i-65" style="edgeStyle=orthogonalEdgeStyle;rounded=0;orthogonalLoop=1;jettySize=auto;html=1;exitX=0.5;exitY=1;exitDx=0;exitDy=0;entryX=0.5;entryY=0;entryDx=0;entryDy=0;" parent="1" source="4Km1RIQBrni5Gd_6iD3i-16" target="4Km1RIQBrni5Gd_6iD3i-57" edge="1">
          <mxGeometry relative="1" as="geometry" />
        </mxCell>
        <mxCell id="4Km1RIQBrni5Gd_6iD3i-16" value="Apply For Loan" style="rounded=0;whiteSpace=wrap;html=1;strokeColor=#006600;" parent="1" vertex="1">
          <mxGeometry x="-333" y="500" width="100" height="40" as="geometry" />
        </mxCell>
        <mxCell id="4Km1RIQBrni5Gd_6iD3i-202" style="edgeStyle=orthogonalEdgeStyle;rounded=0;orthogonalLoop=1;jettySize=auto;html=1;exitX=0.5;exitY=1;exitDx=0;exitDy=0;" parent="1" source="4Km1RIQBrni5Gd_6iD3i-18" target="4Km1RIQBrni5Gd_6iD3i-197" edge="1">
          <mxGeometry relative="1" as="geometry">
            <Array as="points">
              <mxPoint x="-145" y="550" />
              <mxPoint x="385" y="550" />
            </Array>
          </mxGeometry>
        </mxCell>
        <mxCell id="4Km1RIQBrni5Gd_6iD3i-18" value="Apply For Credit Cards" style="rounded=0;whiteSpace=wrap;html=1;strokeColor=#006600;" parent="1" vertex="1">
          <mxGeometry x="-195" y="500" width="100" height="40" as="geometry" />
        </mxCell>
        <mxCell id="4Km1RIQBrni5Gd_6iD3i-19" value="Calculate EMI" style="rounded=0;whiteSpace=wrap;html=1;strokeColor=#006600;" parent="1" vertex="1">
          <mxGeometry x="-53" y="500" width="100" height="40" as="geometry" />
        </mxCell>
        <mxCell id="4Km1RIQBrni5Gd_6iD3i-20" value="Calculate Loan" style="rounded=0;whiteSpace=wrap;html=1;strokeColor=#006600;" parent="1" vertex="1">
          <mxGeometry x="87" y="500" width="100" height="40" as="geometry" />
        </mxCell>
        <mxCell id="4Km1RIQBrni5Gd_6iD3i-21" value="Contact Us" style="rounded=0;whiteSpace=wrap;html=1;strokeColor=#006600;" parent="1" vertex="1">
          <mxGeometry x="227" y="500" width="100" height="40" as="geometry" />
        </mxCell>
        <mxCell id="4Km1RIQBrni5Gd_6iD3i-32" style="edgeStyle=orthogonalEdgeStyle;rounded=0;orthogonalLoop=1;jettySize=auto;html=1;exitX=0.5;exitY=1;exitDx=0;exitDy=0;" parent="1" source="4Km1RIQBrni5Gd_6iD3i-29" target="4Km1RIQBrni5Gd_6iD3i-19" edge="1">
          <mxGeometry relative="1" as="geometry" />
        </mxCell>
        <mxCell id="4Km1RIQBrni5Gd_6iD3i-34" style="edgeStyle=orthogonalEdgeStyle;rounded=0;orthogonalLoop=1;jettySize=auto;html=1;exitX=1;exitY=0.5;exitDx=0;exitDy=0;" parent="1" source="4Km1RIQBrni5Gd_6iD3i-29" edge="1">
          <mxGeometry relative="1" as="geometry">
            <mxPoint x="118" y="385" as="targetPoint" />
          </mxGeometry>
        </mxCell>
        <mxCell id="4Km1RIQBrni5Gd_6iD3i-38" style="edgeStyle=orthogonalEdgeStyle;rounded=0;orthogonalLoop=1;jettySize=auto;html=1;exitX=0;exitY=0.5;exitDx=0;exitDy=0;entryX=1;entryY=0.5;entryDx=0;entryDy=0;" parent="1" source="4Km1RIQBrni5Gd_6iD3i-29" target="4Km1RIQBrni5Gd_6iD3i-37" edge="1">
          <mxGeometry relative="1" as="geometry" />
        </mxCell>
        <mxCell id="4Km1RIQBrni5Gd_6iD3i-48" style="edgeStyle=orthogonalEdgeStyle;rounded=0;orthogonalLoop=1;jettySize=auto;html=1;exitX=0.5;exitY=1;exitDx=0;exitDy=0;entryX=0.5;entryY=0;entryDx=0;entryDy=0;" parent="1" source="4Km1RIQBrni5Gd_6iD3i-29" target="4Km1RIQBrni5Gd_6iD3i-18" edge="1">
          <mxGeometry relative="1" as="geometry" />
        </mxCell>
        <mxCell id="4Km1RIQBrni5Gd_6iD3i-49" style="edgeStyle=orthogonalEdgeStyle;rounded=0;orthogonalLoop=1;jettySize=auto;html=1;exitX=0.5;exitY=1;exitDx=0;exitDy=0;" parent="1" source="4Km1RIQBrni5Gd_6iD3i-29" target="4Km1RIQBrni5Gd_6iD3i-20" edge="1">
          <mxGeometry relative="1" as="geometry" />
        </mxCell>
        <mxCell id="4Km1RIQBrni5Gd_6iD3i-50" style="edgeStyle=orthogonalEdgeStyle;rounded=0;orthogonalLoop=1;jettySize=auto;html=1;exitX=0.5;exitY=1;exitDx=0;exitDy=0;entryX=0.5;entryY=0;entryDx=0;entryDy=0;" parent="1" source="4Km1RIQBrni5Gd_6iD3i-29" target="4Km1RIQBrni5Gd_6iD3i-16" edge="1">
          <mxGeometry relative="1" as="geometry" />
        </mxCell>
        <mxCell id="4Km1RIQBrni5Gd_6iD3i-51" style="edgeStyle=orthogonalEdgeStyle;rounded=0;orthogonalLoop=1;jettySize=auto;html=1;exitX=0.5;exitY=1;exitDx=0;exitDy=0;" parent="1" source="4Km1RIQBrni5Gd_6iD3i-29" target="4Km1RIQBrni5Gd_6iD3i-21" edge="1">
          <mxGeometry relative="1" as="geometry" />
        </mxCell>
        <mxCell id="4Km1RIQBrni5Gd_6iD3i-29" value="Correct Login Info?" style="rhombus;whiteSpace=wrap;html=1;strokeColor=#006600;strokeWidth=1;" parent="1" vertex="1">
          <mxGeometry x="-43" y="340" width="80" height="90" as="geometry" />
        </mxCell>
        <mxCell id="4Km1RIQBrni5Gd_6iD3i-33" value="Yes" style="text;html=1;align=center;verticalAlign=middle;whiteSpace=wrap;rounded=0;" parent="1" vertex="1">
          <mxGeometry x="-3" y="440" width="40" height="20" as="geometry" />
        </mxCell>
        <mxCell id="4Km1RIQBrni5Gd_6iD3i-40" style="edgeStyle=orthogonalEdgeStyle;rounded=0;orthogonalLoop=1;jettySize=auto;html=1;exitX=0.5;exitY=0;exitDx=0;exitDy=0;entryX=0;entryY=0.5;entryDx=0;entryDy=0;" parent="1" source="4Km1RIQBrni5Gd_6iD3i-37" target="4Km1RIQBrni5Gd_6iD3i-13" edge="1">
          <mxGeometry relative="1" as="geometry" />
        </mxCell>
        <mxCell id="4Km1RIQBrni5Gd_6iD3i-37" value="Reset Password" style="rounded=0;whiteSpace=wrap;html=1;strokeColor=#006600;strokeWidth=1;" parent="1" vertex="1">
          <mxGeometry x="-190" y="360" width="90" height="50" as="geometry" />
        </mxCell>
        <mxCell id="4Km1RIQBrni5Gd_6iD3i-39" value="No" style="text;html=1;align=center;verticalAlign=middle;whiteSpace=wrap;rounded=0;" parent="1" vertex="1">
          <mxGeometry x="-88.5" y="360" width="40" height="20" as="geometry" />
        </mxCell>
        <mxCell id="4Km1RIQBrni5Gd_6iD3i-43" style="edgeStyle=orthogonalEdgeStyle;rounded=0;orthogonalLoop=1;jettySize=auto;html=1;exitX=0.5;exitY=0;exitDx=0;exitDy=0;entryX=0.5;entryY=1;entryDx=0;entryDy=0;" parent="1" source="4Km1RIQBrni5Gd_6iD3i-42" target="4Km1RIQBrni5Gd_6iD3i-12" edge="1">
          <mxGeometry relative="1" as="geometry">
            <mxPoint x="143" y="220" as="targetPoint" />
            <Array as="points" />
          </mxGeometry>
        </mxCell>
        <mxCell id="4Km1RIQBrni5Gd_6iD3i-42" value="Don&#39;t have Account?" style="rounded=0;whiteSpace=wrap;html=1;strokeColor=#006600;strokeWidth=1;" parent="1" vertex="1">
          <mxGeometry x="98" y="360" width="90" height="50" as="geometry" />
        </mxCell>
        <mxCell id="4Km1RIQBrni5Gd_6iD3i-46" value="No" style="text;html=1;align=center;verticalAlign=middle;whiteSpace=wrap;rounded=0;" parent="1" vertex="1">
          <mxGeometry x="44.75" y="360" width="40" height="20" as="geometry" />
        </mxCell>
        <mxCell id="4Km1RIQBrni5Gd_6iD3i-76" style="edgeStyle=orthogonalEdgeStyle;rounded=0;orthogonalLoop=1;jettySize=auto;html=1;exitX=0.5;exitY=1;exitDx=0;exitDy=0;entryX=0.5;entryY=0;entryDx=0;entryDy=0;" parent="1" source="4Km1RIQBrni5Gd_6iD3i-52" target="4Km1RIQBrni5Gd_6iD3i-68" edge="1">
          <mxGeometry relative="1" as="geometry" />
        </mxCell>
        <mxCell id="4Km1RIQBrni5Gd_6iD3i-52" value="Home Loan" style="rounded=0;whiteSpace=wrap;html=1;strokeColor=#006600;" parent="1" vertex="1">
          <mxGeometry x="-403" y="595" width="100" height="40" as="geometry" />
        </mxCell>
        <mxCell id="4Km1RIQBrni5Gd_6iD3i-77" style="edgeStyle=orthogonalEdgeStyle;rounded=0;orthogonalLoop=1;jettySize=auto;html=1;exitX=0.5;exitY=1;exitDx=0;exitDy=0;entryX=0.5;entryY=0;entryDx=0;entryDy=0;" parent="1" source="4Km1RIQBrni5Gd_6iD3i-53" target="4Km1RIQBrni5Gd_6iD3i-71" edge="1">
          <mxGeometry relative="1" as="geometry" />
        </mxCell>
        <mxCell id="4Km1RIQBrni5Gd_6iD3i-53" value="Car Loan" style="rounded=0;whiteSpace=wrap;html=1;strokeColor=#006600;" parent="1" vertex="1">
          <mxGeometry x="-283" y="595" width="100" height="40" as="geometry" />
        </mxCell>
        <mxCell id="4Km1RIQBrni5Gd_6iD3i-78" style="edgeStyle=orthogonalEdgeStyle;rounded=0;orthogonalLoop=1;jettySize=auto;html=1;exitX=0.5;exitY=1;exitDx=0;exitDy=0;" parent="1" source="4Km1RIQBrni5Gd_6iD3i-54" target="4Km1RIQBrni5Gd_6iD3i-72" edge="1">
          <mxGeometry relative="1" as="geometry" />
        </mxCell>
        <mxCell id="4Km1RIQBrni5Gd_6iD3i-54" value="Personal Loan" style="rounded=0;whiteSpace=wrap;html=1;strokeColor=#006600;" parent="1" vertex="1">
          <mxGeometry x="-163" y="595" width="100" height="40" as="geometry" />
        </mxCell>
        <mxCell id="4Km1RIQBrni5Gd_6iD3i-79" style="edgeStyle=orthogonalEdgeStyle;rounded=0;orthogonalLoop=1;jettySize=auto;html=1;exitX=0.5;exitY=1;exitDx=0;exitDy=0;" parent="1" source="4Km1RIQBrni5Gd_6iD3i-55" target="4Km1RIQBrni5Gd_6iD3i-73" edge="1">
          <mxGeometry relative="1" as="geometry" />
        </mxCell>
        <mxCell id="4Km1RIQBrni5Gd_6iD3i-55" value="Educational Loan" style="rounded=0;whiteSpace=wrap;html=1;strokeColor=#006600;" parent="1" vertex="1">
          <mxGeometry x="-42" y="595" width="100" height="40" as="geometry" />
        </mxCell>
        <mxCell id="4Km1RIQBrni5Gd_6iD3i-80" style="edgeStyle=orthogonalEdgeStyle;rounded=0;orthogonalLoop=1;jettySize=auto;html=1;exitX=0.5;exitY=1;exitDx=0;exitDy=0;" parent="1" source="4Km1RIQBrni5Gd_6iD3i-56" target="4Km1RIQBrni5Gd_6iD3i-74" edge="1">
          <mxGeometry relative="1" as="geometry" />
        </mxCell>
        <mxCell id="4Km1RIQBrni5Gd_6iD3i-56" value="Loan Against property" style="rounded=0;whiteSpace=wrap;html=1;strokeColor=#006600;" parent="1" vertex="1">
          <mxGeometry x="84.75" y="595" width="100" height="40" as="geometry" />
        </mxCell>
        <mxCell id="4Km1RIQBrni5Gd_6iD3i-81" style="edgeStyle=orthogonalEdgeStyle;rounded=0;orthogonalLoop=1;jettySize=auto;html=1;exitX=0.5;exitY=1;exitDx=0;exitDy=0;" parent="1" source="4Km1RIQBrni5Gd_6iD3i-57" target="4Km1RIQBrni5Gd_6iD3i-75" edge="1">
          <mxGeometry relative="1" as="geometry" />
        </mxCell>
        <mxCell id="4Km1RIQBrni5Gd_6iD3i-57" value="Startup Loan" style="rounded=0;whiteSpace=wrap;html=1;strokeColor=#006600;" parent="1" vertex="1">
          <mxGeometry x="207" y="595" width="100" height="40" as="geometry" />
        </mxCell>
        <mxCell id="4Km1RIQBrni5Gd_6iD3i-89" style="edgeStyle=orthogonalEdgeStyle;rounded=0;orthogonalLoop=1;jettySize=auto;html=1;exitX=0.5;exitY=1;exitDx=0;exitDy=0;entryX=0.5;entryY=0;entryDx=0;entryDy=0;" parent="1" source="4Km1RIQBrni5Gd_6iD3i-68" target="4Km1RIQBrni5Gd_6iD3i-83" edge="1">
          <mxGeometry relative="1" as="geometry" />
        </mxCell>
        <mxCell id="4Km1RIQBrni5Gd_6iD3i-68" value="Compare and Apply for Best Home Loan Offers" style="rounded=0;whiteSpace=wrap;html=1;strokeColor=#006600;" parent="1" vertex="1">
          <mxGeometry x="-408" y="690" width="110" height="50" as="geometry" />
        </mxCell>
        <mxCell id="4Km1RIQBrni5Gd_6iD3i-90" style="edgeStyle=orthogonalEdgeStyle;rounded=0;orthogonalLoop=1;jettySize=auto;html=1;exitX=0.5;exitY=1;exitDx=0;exitDy=0;entryX=0.5;entryY=0;entryDx=0;entryDy=0;" parent="1" source="4Km1RIQBrni5Gd_6iD3i-71" target="4Km1RIQBrni5Gd_6iD3i-84" edge="1">
          <mxGeometry relative="1" as="geometry" />
        </mxCell>
        <mxCell id="4Km1RIQBrni5Gd_6iD3i-71" value="Compare and Apply for Best Car Loan Offers" style="rounded=0;whiteSpace=wrap;html=1;strokeColor=#006600;" parent="1" vertex="1">
          <mxGeometry x="-288" y="690" width="110" height="50" as="geometry" />
        </mxCell>
        <mxCell id="4Km1RIQBrni5Gd_6iD3i-91" style="edgeStyle=orthogonalEdgeStyle;rounded=0;orthogonalLoop=1;jettySize=auto;html=1;exitX=0.5;exitY=1;exitDx=0;exitDy=0;entryX=0.5;entryY=0;entryDx=0;entryDy=0;" parent="1" source="4Km1RIQBrni5Gd_6iD3i-72" target="4Km1RIQBrni5Gd_6iD3i-85" edge="1">
          <mxGeometry relative="1" as="geometry" />
        </mxCell>
        <mxCell id="4Km1RIQBrni5Gd_6iD3i-72" value="Compare and Apply for Best Personal Loan Offers" style="rounded=0;whiteSpace=wrap;html=1;strokeColor=#006600;" parent="1" vertex="1">
          <mxGeometry x="-165.75" y="690" width="105.5" height="50" as="geometry" />
        </mxCell>
        <mxCell id="4Km1RIQBrni5Gd_6iD3i-92" style="edgeStyle=orthogonalEdgeStyle;rounded=0;orthogonalLoop=1;jettySize=auto;html=1;exitX=0.5;exitY=1;exitDx=0;exitDy=0;entryX=0.5;entryY=0;entryDx=0;entryDy=0;" parent="1" source="4Km1RIQBrni5Gd_6iD3i-73" target="4Km1RIQBrni5Gd_6iD3i-86" edge="1">
          <mxGeometry relative="1" as="geometry" />
        </mxCell>
        <mxCell id="4Km1RIQBrni5Gd_6iD3i-73" value="Compare and Apply for Best Educational Loan Offers" style="rounded=0;whiteSpace=wrap;html=1;strokeColor=#006600;" parent="1" vertex="1">
          <mxGeometry x="-48.5" y="690" width="115" height="50" as="geometry" />
        </mxCell>
        <mxCell id="4Km1RIQBrni5Gd_6iD3i-94" style="edgeStyle=orthogonalEdgeStyle;rounded=0;orthogonalLoop=1;jettySize=auto;html=1;exitX=0.5;exitY=1;exitDx=0;exitDy=0;entryX=0.5;entryY=0;entryDx=0;entryDy=0;" parent="1" source="4Km1RIQBrni5Gd_6iD3i-74" target="4Km1RIQBrni5Gd_6iD3i-87" edge="1">
          <mxGeometry relative="1" as="geometry" />
        </mxCell>
        <mxCell id="4Km1RIQBrni5Gd_6iD3i-74" value="Compare and Apply for Best Loan Aginst Property Offers" style="rounded=0;whiteSpace=wrap;html=1;strokeColor=#006600;" parent="1" vertex="1">
          <mxGeometry x="77.25" y="690" width="115" height="50" as="geometry" />
        </mxCell>
        <mxCell id="4Km1RIQBrni5Gd_6iD3i-96" style="edgeStyle=orthogonalEdgeStyle;rounded=0;orthogonalLoop=1;jettySize=auto;html=1;exitX=0.5;exitY=1;exitDx=0;exitDy=0;entryX=0.5;entryY=0;entryDx=0;entryDy=0;" parent="1" source="4Km1RIQBrni5Gd_6iD3i-75" target="4Km1RIQBrni5Gd_6iD3i-88" edge="1">
          <mxGeometry relative="1" as="geometry" />
        </mxCell>
        <mxCell id="4Km1RIQBrni5Gd_6iD3i-75" value="Compare and Apply for Best Startup Loan Offers" style="rounded=0;whiteSpace=wrap;html=1;strokeColor=#006600;" parent="1" vertex="1">
          <mxGeometry x="202" y="690" width="110" height="50" as="geometry" />
        </mxCell>
        <mxCell id="4Km1RIQBrni5Gd_6iD3i-103" style="edgeStyle=orthogonalEdgeStyle;rounded=0;orthogonalLoop=1;jettySize=auto;html=1;exitX=0.5;exitY=1;exitDx=0;exitDy=0;entryX=0.5;entryY=0;entryDx=0;entryDy=0;" parent="1" source="4Km1RIQBrni5Gd_6iD3i-83" target="4Km1RIQBrni5Gd_6iD3i-97" edge="1">
          <mxGeometry relative="1" as="geometry" />
        </mxCell>
        <mxCell id="4Km1RIQBrni5Gd_6iD3i-83" value="Apply" style="rounded=0;whiteSpace=wrap;html=1;strokeColor=#006600;" parent="1" vertex="1">
          <mxGeometry x="-382.5" y="770" width="59" height="30" as="geometry" />
        </mxCell>
        <mxCell id="4Km1RIQBrni5Gd_6iD3i-105" style="edgeStyle=orthogonalEdgeStyle;rounded=0;orthogonalLoop=1;jettySize=auto;html=1;exitX=0.5;exitY=1;exitDx=0;exitDy=0;" parent="1" source="4Km1RIQBrni5Gd_6iD3i-84" target="4Km1RIQBrni5Gd_6iD3i-98" edge="1">
          <mxGeometry relative="1" as="geometry" />
        </mxCell>
        <mxCell id="4Km1RIQBrni5Gd_6iD3i-84" value="Apply" style="rounded=0;whiteSpace=wrap;html=1;strokeColor=#006600;" parent="1" vertex="1">
          <mxGeometry x="-261" y="770" width="59" height="30" as="geometry" />
        </mxCell>
        <mxCell id="4Km1RIQBrni5Gd_6iD3i-107" style="edgeStyle=orthogonalEdgeStyle;rounded=0;orthogonalLoop=1;jettySize=auto;html=1;exitX=0.5;exitY=1;exitDx=0;exitDy=0;entryX=0.5;entryY=0;entryDx=0;entryDy=0;" parent="1" source="4Km1RIQBrni5Gd_6iD3i-85" target="4Km1RIQBrni5Gd_6iD3i-99" edge="1">
          <mxGeometry relative="1" as="geometry" />
        </mxCell>
        <mxCell id="4Km1RIQBrni5Gd_6iD3i-85" value="Apply" style="rounded=0;whiteSpace=wrap;html=1;strokeColor=#006600;" parent="1" vertex="1">
          <mxGeometry x="-147.5" y="770" width="59" height="30" as="geometry" />
        </mxCell>
        <mxCell id="4Km1RIQBrni5Gd_6iD3i-109" style="edgeStyle=orthogonalEdgeStyle;rounded=0;orthogonalLoop=1;jettySize=auto;html=1;exitX=0.5;exitY=1;exitDx=0;exitDy=0;" parent="1" source="4Km1RIQBrni5Gd_6iD3i-86" target="4Km1RIQBrni5Gd_6iD3i-100" edge="1">
          <mxGeometry relative="1" as="geometry" />
        </mxCell>
        <mxCell id="4Km1RIQBrni5Gd_6iD3i-86" value="Apply" style="rounded=0;whiteSpace=wrap;html=1;strokeColor=#006600;" parent="1" vertex="1">
          <mxGeometry x="-21.5" y="770" width="59" height="30" as="geometry" />
        </mxCell>
        <mxCell id="4Km1RIQBrni5Gd_6iD3i-112" style="edgeStyle=orthogonalEdgeStyle;rounded=0;orthogonalLoop=1;jettySize=auto;html=1;exitX=0.5;exitY=1;exitDx=0;exitDy=0;entryX=0.5;entryY=0;entryDx=0;entryDy=0;" parent="1" source="4Km1RIQBrni5Gd_6iD3i-87" target="4Km1RIQBrni5Gd_6iD3i-101" edge="1">
          <mxGeometry relative="1" as="geometry" />
        </mxCell>
        <mxCell id="4Km1RIQBrni5Gd_6iD3i-87" value="Apply" style="rounded=0;whiteSpace=wrap;html=1;strokeColor=#006600;" parent="1" vertex="1">
          <mxGeometry x="107.5" y="770" width="59" height="30" as="geometry" />
        </mxCell>
        <mxCell id="4Km1RIQBrni5Gd_6iD3i-113" style="edgeStyle=orthogonalEdgeStyle;rounded=0;orthogonalLoop=1;jettySize=auto;html=1;exitX=0.5;exitY=1;exitDx=0;exitDy=0;entryX=0.5;entryY=0;entryDx=0;entryDy=0;" parent="1" source="4Km1RIQBrni5Gd_6iD3i-88" target="4Km1RIQBrni5Gd_6iD3i-102" edge="1">
          <mxGeometry relative="1" as="geometry" />
        </mxCell>
        <mxCell id="4Km1RIQBrni5Gd_6iD3i-88" value="Apply" style="rounded=0;whiteSpace=wrap;html=1;strokeColor=#006600;" parent="1" vertex="1">
          <mxGeometry x="227.5" y="770" width="59" height="30" as="geometry" />
        </mxCell>
        <mxCell id="4Km1RIQBrni5Gd_6iD3i-127" style="edgeStyle=orthogonalEdgeStyle;rounded=0;orthogonalLoop=1;jettySize=auto;html=1;exitX=0.5;exitY=1;exitDx=0;exitDy=0;entryX=0.5;entryY=0;entryDx=0;entryDy=0;" parent="1" source="4Km1RIQBrni5Gd_6iD3i-97" target="4Km1RIQBrni5Gd_6iD3i-120" edge="1">
          <mxGeometry relative="1" as="geometry" />
        </mxCell>
        <mxCell id="4Km1RIQBrni5Gd_6iD3i-198" value="" style="edgeStyle=orthogonalEdgeStyle;rounded=0;orthogonalLoop=1;jettySize=auto;html=1;" parent="1" source="4Km1RIQBrni5Gd_6iD3i-97" target="4Km1RIQBrni5Gd_6iD3i-83" edge="1">
          <mxGeometry relative="1" as="geometry" />
        </mxCell>
        <mxCell id="4Km1RIQBrni5Gd_6iD3i-97" value="Eligibility Check" style="rounded=0;whiteSpace=wrap;html=1;strokeColor=#006600;" parent="1" vertex="1">
          <mxGeometry x="-387.75" y="840" width="69.5" height="40" as="geometry" />
        </mxCell>
        <mxCell id="4Km1RIQBrni5Gd_6iD3i-133" style="edgeStyle=orthogonalEdgeStyle;rounded=0;orthogonalLoop=1;jettySize=auto;html=1;exitX=0.5;exitY=1;exitDx=0;exitDy=0;entryX=0.5;entryY=0;entryDx=0;entryDy=0;" parent="1" source="4Km1RIQBrni5Gd_6iD3i-98" target="4Km1RIQBrni5Gd_6iD3i-121" edge="1">
          <mxGeometry relative="1" as="geometry" />
        </mxCell>
        <mxCell id="4Km1RIQBrni5Gd_6iD3i-98" value="Eligibility Check" style="rounded=0;whiteSpace=wrap;html=1;strokeColor=#006600;" parent="1" vertex="1">
          <mxGeometry x="-265.5" y="840" width="68" height="40" as="geometry" />
        </mxCell>
        <mxCell id="4Km1RIQBrni5Gd_6iD3i-134" style="edgeStyle=orthogonalEdgeStyle;rounded=0;orthogonalLoop=1;jettySize=auto;html=1;exitX=0.5;exitY=1;exitDx=0;exitDy=0;entryX=0.5;entryY=0;entryDx=0;entryDy=0;" parent="1" source="4Km1RIQBrni5Gd_6iD3i-99" target="4Km1RIQBrni5Gd_6iD3i-123" edge="1">
          <mxGeometry relative="1" as="geometry" />
        </mxCell>
        <mxCell id="4Km1RIQBrni5Gd_6iD3i-99" value="Eligibility Check" style="rounded=0;whiteSpace=wrap;html=1;strokeColor=#006600;" parent="1" vertex="1">
          <mxGeometry x="-150.25" y="840" width="64.5" height="40" as="geometry" />
        </mxCell>
        <mxCell id="4Km1RIQBrni5Gd_6iD3i-136" style="edgeStyle=orthogonalEdgeStyle;rounded=0;orthogonalLoop=1;jettySize=auto;html=1;exitX=0.5;exitY=1;exitDx=0;exitDy=0;entryX=0.5;entryY=0;entryDx=0;entryDy=0;" parent="1" source="4Km1RIQBrni5Gd_6iD3i-100" target="4Km1RIQBrni5Gd_6iD3i-124" edge="1">
          <mxGeometry relative="1" as="geometry" />
        </mxCell>
        <mxCell id="4Km1RIQBrni5Gd_6iD3i-100" value="Eligibility Check" style="rounded=0;whiteSpace=wrap;html=1;strokeColor=#006600;" parent="1" vertex="1">
          <mxGeometry x="-26.5" y="840" width="68.5" height="40" as="geometry" />
        </mxCell>
        <mxCell id="4Km1RIQBrni5Gd_6iD3i-141" style="edgeStyle=orthogonalEdgeStyle;rounded=0;orthogonalLoop=1;jettySize=auto;html=1;exitX=0.5;exitY=1;exitDx=0;exitDy=0;entryX=0.5;entryY=0;entryDx=0;entryDy=0;" parent="1" source="4Km1RIQBrni5Gd_6iD3i-101" target="4Km1RIQBrni5Gd_6iD3i-125" edge="1">
          <mxGeometry relative="1" as="geometry" />
        </mxCell>
        <mxCell id="4Km1RIQBrni5Gd_6iD3i-101" value="Eligibility Check" style="rounded=0;whiteSpace=wrap;html=1;strokeColor=#006600;" parent="1" vertex="1">
          <mxGeometry x="102.25" y="840" width="69.5" height="40" as="geometry" />
        </mxCell>
        <mxCell id="4Km1RIQBrni5Gd_6iD3i-142" style="edgeStyle=orthogonalEdgeStyle;rounded=0;orthogonalLoop=1;jettySize=auto;html=1;exitX=0.5;exitY=1;exitDx=0;exitDy=0;entryX=0.5;entryY=0;entryDx=0;entryDy=0;" parent="1" source="4Km1RIQBrni5Gd_6iD3i-102" target="4Km1RIQBrni5Gd_6iD3i-126" edge="1">
          <mxGeometry relative="1" as="geometry" />
        </mxCell>
        <mxCell id="4Km1RIQBrni5Gd_6iD3i-102" value="Eligibility Check" style="rounded=0;whiteSpace=wrap;html=1;strokeColor=#006600;" parent="1" vertex="1">
          <mxGeometry x="222.25" y="840" width="69.5" height="40" as="geometry" />
        </mxCell>
        <mxCell id="4Km1RIQBrni5Gd_6iD3i-186" style="edgeStyle=orthogonalEdgeStyle;rounded=0;orthogonalLoop=1;jettySize=auto;html=1;exitX=0.5;exitY=1;exitDx=0;exitDy=0;entryX=0.5;entryY=0;entryDx=0;entryDy=0;" parent="1" source="4Km1RIQBrni5Gd_6iD3i-114" target="4Km1RIQBrni5Gd_6iD3i-185" edge="1">
          <mxGeometry relative="1" as="geometry" />
        </mxCell>
        <mxCell id="4Km1RIQBrni5Gd_6iD3i-114" value="Fill Up the&amp;nbsp; Application Form" style="rounded=0;whiteSpace=wrap;html=1;" parent="1" vertex="1">
          <mxGeometry x="-390.38" y="980" width="74.75" height="40" as="geometry" />
        </mxCell>
        <mxCell id="4Km1RIQBrni5Gd_6iD3i-187" style="edgeStyle=orthogonalEdgeStyle;rounded=0;orthogonalLoop=1;jettySize=auto;html=1;exitX=0.5;exitY=1;exitDx=0;exitDy=0;entryX=0.5;entryY=0;entryDx=0;entryDy=0;" parent="1" source="4Km1RIQBrni5Gd_6iD3i-115" target="4Km1RIQBrni5Gd_6iD3i-185" edge="1">
          <mxGeometry relative="1" as="geometry" />
        </mxCell>
        <mxCell id="4Km1RIQBrni5Gd_6iD3i-115" value="Fill Up the&amp;nbsp; Application Form" style="rounded=0;whiteSpace=wrap;html=1;" parent="1" vertex="1">
          <mxGeometry x="-269.25" y="980" width="72.5" height="40" as="geometry" />
        </mxCell>
        <mxCell id="4Km1RIQBrni5Gd_6iD3i-190" style="edgeStyle=orthogonalEdgeStyle;rounded=0;orthogonalLoop=1;jettySize=auto;html=1;exitX=0.5;exitY=1;exitDx=0;exitDy=0;entryX=0.5;entryY=0;entryDx=0;entryDy=0;" parent="1" source="4Km1RIQBrni5Gd_6iD3i-117" target="4Km1RIQBrni5Gd_6iD3i-185" edge="1">
          <mxGeometry relative="1" as="geometry" />
        </mxCell>
        <mxCell id="4Km1RIQBrni5Gd_6iD3i-117" value="Fill Up the&amp;nbsp; Application Form" style="rounded=0;whiteSpace=wrap;html=1;" parent="1" vertex="1">
          <mxGeometry x="-29.560000000000002" y="980" width="73.5" height="40" as="geometry" />
        </mxCell>
        <mxCell id="4Km1RIQBrni5Gd_6iD3i-191" style="edgeStyle=orthogonalEdgeStyle;rounded=0;orthogonalLoop=1;jettySize=auto;html=1;exitX=0.5;exitY=1;exitDx=0;exitDy=0;entryX=0.5;entryY=0;entryDx=0;entryDy=0;" parent="1" source="4Km1RIQBrni5Gd_6iD3i-118" target="4Km1RIQBrni5Gd_6iD3i-185" edge="1">
          <mxGeometry relative="1" as="geometry" />
        </mxCell>
        <mxCell id="4Km1RIQBrni5Gd_6iD3i-118" value="Fill Up the&amp;nbsp; Application Form" style="rounded=0;whiteSpace=wrap;html=1;" parent="1" vertex="1">
          <mxGeometry x="100.42999999999995" y="980" width="74.75" height="40" as="geometry" />
        </mxCell>
        <mxCell id="4Km1RIQBrni5Gd_6iD3i-193" style="edgeStyle=orthogonalEdgeStyle;rounded=0;orthogonalLoop=1;jettySize=auto;html=1;exitX=0.5;exitY=1;exitDx=0;exitDy=0;entryX=0.5;entryY=0;entryDx=0;entryDy=0;" parent="1" source="4Km1RIQBrni5Gd_6iD3i-119" target="4Km1RIQBrni5Gd_6iD3i-185" edge="1">
          <mxGeometry relative="1" as="geometry" />
        </mxCell>
        <mxCell id="4Km1RIQBrni5Gd_6iD3i-119" value="Fill Up the&amp;nbsp; Application Form" style="rounded=0;whiteSpace=wrap;html=1;strokeColor=#006600;" parent="1" vertex="1">
          <mxGeometry x="218.32000000000005" y="980" width="74.75" height="40" as="geometry" />
        </mxCell>
        <mxCell id="4Km1RIQBrni5Gd_6iD3i-128" style="edgeStyle=orthogonalEdgeStyle;rounded=0;orthogonalLoop=1;jettySize=auto;html=1;exitX=0.5;exitY=1;exitDx=0;exitDy=0;entryX=0.5;entryY=0;entryDx=0;entryDy=0;" parent="1" source="4Km1RIQBrni5Gd_6iD3i-120" target="4Km1RIQBrni5Gd_6iD3i-114" edge="1">
          <mxGeometry relative="1" as="geometry" />
        </mxCell>
        <mxCell id="4Km1RIQBrni5Gd_6iD3i-152" style="edgeStyle=orthogonalEdgeStyle;rounded=0;orthogonalLoop=1;jettySize=auto;html=1;exitX=0;exitY=0.5;exitDx=0;exitDy=0;entryX=0;entryY=0.5;entryDx=0;entryDy=0;" parent="1" source="4Km1RIQBrni5Gd_6iD3i-120" target="4Km1RIQBrni5Gd_6iD3i-68" edge="1">
          <mxGeometry relative="1" as="geometry">
            <mxPoint x="-440" y="710" as="targetPoint" />
            <Array as="points">
              <mxPoint x="-440" y="930" />
              <mxPoint x="-440" y="715" />
            </Array>
          </mxGeometry>
        </mxCell>
        <mxCell id="4Km1RIQBrni5Gd_6iD3i-120" value="Eligible?" style="rhombus;whiteSpace=wrap;html=1;strokeColor=#006600;" parent="1" vertex="1">
          <mxGeometry x="-382.5" y="900" width="57.38" height="60" as="geometry" />
        </mxCell>
        <mxCell id="4Km1RIQBrni5Gd_6iD3i-132" style="edgeStyle=orthogonalEdgeStyle;rounded=0;orthogonalLoop=1;jettySize=auto;html=1;exitX=0.5;exitY=1;exitDx=0;exitDy=0;entryX=0.5;entryY=0;entryDx=0;entryDy=0;" parent="1" source="4Km1RIQBrni5Gd_6iD3i-121" target="4Km1RIQBrni5Gd_6iD3i-115" edge="1">
          <mxGeometry relative="1" as="geometry" />
        </mxCell>
        <mxCell id="4Km1RIQBrni5Gd_6iD3i-153" style="edgeStyle=orthogonalEdgeStyle;rounded=0;orthogonalLoop=1;jettySize=auto;html=1;exitX=0;exitY=0.5;exitDx=0;exitDy=0;entryX=0;entryY=1;entryDx=0;entryDy=0;" parent="1" source="4Km1RIQBrni5Gd_6iD3i-121" target="4Km1RIQBrni5Gd_6iD3i-71" edge="1">
          <mxGeometry relative="1" as="geometry" />
        </mxCell>
        <mxCell id="4Km1RIQBrni5Gd_6iD3i-121" value="Eligible?" style="rhombus;whiteSpace=wrap;html=1;strokeColor=#006600;" parent="1" vertex="1">
          <mxGeometry x="-261" y="900" width="57.38" height="60" as="geometry" />
        </mxCell>
        <mxCell id="4Km1RIQBrni5Gd_6iD3i-135" style="edgeStyle=orthogonalEdgeStyle;rounded=0;orthogonalLoop=1;jettySize=auto;html=1;exitX=0.5;exitY=1;exitDx=0;exitDy=0;entryX=0.5;entryY=0;entryDx=0;entryDy=0;" parent="1" source="4Km1RIQBrni5Gd_6iD3i-123" target="4Km1RIQBrni5Gd_6iD3i-131" edge="1">
          <mxGeometry relative="1" as="geometry" />
        </mxCell>
        <mxCell id="4Km1RIQBrni5Gd_6iD3i-156" style="edgeStyle=orthogonalEdgeStyle;rounded=0;orthogonalLoop=1;jettySize=auto;html=1;exitX=0;exitY=0.5;exitDx=0;exitDy=0;entryX=0;entryY=1;entryDx=0;entryDy=0;" parent="1" source="4Km1RIQBrni5Gd_6iD3i-123" target="4Km1RIQBrni5Gd_6iD3i-72" edge="1">
          <mxGeometry relative="1" as="geometry" />
        </mxCell>
        <mxCell id="4Km1RIQBrni5Gd_6iD3i-123" value="Eligible?" style="rhombus;whiteSpace=wrap;html=1;strokeColor=#006600;" parent="1" vertex="1">
          <mxGeometry x="-147.5" y="900" width="57.38" height="60" as="geometry" />
        </mxCell>
        <mxCell id="4Km1RIQBrni5Gd_6iD3i-137" style="edgeStyle=orthogonalEdgeStyle;rounded=0;orthogonalLoop=1;jettySize=auto;html=1;exitX=0.5;exitY=1;exitDx=0;exitDy=0;entryX=0.5;entryY=0;entryDx=0;entryDy=0;" parent="1" source="4Km1RIQBrni5Gd_6iD3i-124" target="4Km1RIQBrni5Gd_6iD3i-117" edge="1">
          <mxGeometry relative="1" as="geometry" />
        </mxCell>
        <mxCell id="4Km1RIQBrni5Gd_6iD3i-157" style="edgeStyle=orthogonalEdgeStyle;rounded=0;orthogonalLoop=1;jettySize=auto;html=1;exitX=0;exitY=0.5;exitDx=0;exitDy=0;entryX=0;entryY=1;entryDx=0;entryDy=0;" parent="1" source="4Km1RIQBrni5Gd_6iD3i-124" target="4Km1RIQBrni5Gd_6iD3i-73" edge="1">
          <mxGeometry relative="1" as="geometry" />
        </mxCell>
        <mxCell id="4Km1RIQBrni5Gd_6iD3i-124" value="Eligible?" style="rhombus;whiteSpace=wrap;html=1;strokeColor=#006600;" parent="1" vertex="1">
          <mxGeometry x="-21.5" y="900" width="57.38" height="60" as="geometry" />
        </mxCell>
        <mxCell id="4Km1RIQBrni5Gd_6iD3i-140" style="edgeStyle=orthogonalEdgeStyle;rounded=0;orthogonalLoop=1;jettySize=auto;html=1;exitX=0.5;exitY=1;exitDx=0;exitDy=0;entryX=0.5;entryY=0;entryDx=0;entryDy=0;" parent="1" source="4Km1RIQBrni5Gd_6iD3i-125" target="4Km1RIQBrni5Gd_6iD3i-118" edge="1">
          <mxGeometry relative="1" as="geometry" />
        </mxCell>
        <mxCell id="4Km1RIQBrni5Gd_6iD3i-158" style="edgeStyle=orthogonalEdgeStyle;rounded=0;orthogonalLoop=1;jettySize=auto;html=1;exitX=0;exitY=0.5;exitDx=0;exitDy=0;entryX=0;entryY=1;entryDx=0;entryDy=0;" parent="1" source="4Km1RIQBrni5Gd_6iD3i-125" target="4Km1RIQBrni5Gd_6iD3i-74" edge="1">
          <mxGeometry relative="1" as="geometry" />
        </mxCell>
        <mxCell id="4Km1RIQBrni5Gd_6iD3i-125" value="Eligible?" style="rhombus;whiteSpace=wrap;html=1;strokeColor=#006600;" parent="1" vertex="1">
          <mxGeometry x="109.12" y="900" width="57.38" height="60" as="geometry" />
        </mxCell>
        <mxCell id="4Km1RIQBrni5Gd_6iD3i-143" style="edgeStyle=orthogonalEdgeStyle;rounded=0;orthogonalLoop=1;jettySize=auto;html=1;exitX=0.5;exitY=1;exitDx=0;exitDy=0;entryX=0.5;entryY=0;entryDx=0;entryDy=0;" parent="1" source="4Km1RIQBrni5Gd_6iD3i-126" target="4Km1RIQBrni5Gd_6iD3i-119" edge="1">
          <mxGeometry relative="1" as="geometry" />
        </mxCell>
        <mxCell id="4Km1RIQBrni5Gd_6iD3i-160" style="edgeStyle=orthogonalEdgeStyle;rounded=0;orthogonalLoop=1;jettySize=auto;html=1;exitX=0;exitY=0.5;exitDx=0;exitDy=0;entryX=0;entryY=1;entryDx=0;entryDy=0;" parent="1" source="4Km1RIQBrni5Gd_6iD3i-126" target="4Km1RIQBrni5Gd_6iD3i-75" edge="1">
          <mxGeometry relative="1" as="geometry" />
        </mxCell>
        <mxCell id="4Km1RIQBrni5Gd_6iD3i-126" value="Eligible?" style="rhombus;whiteSpace=wrap;html=1;strokeColor=#006600;" parent="1" vertex="1">
          <mxGeometry x="227" y="900" width="57.38" height="60" as="geometry" />
        </mxCell>
        <mxCell id="4Km1RIQBrni5Gd_6iD3i-188" style="edgeStyle=orthogonalEdgeStyle;rounded=0;orthogonalLoop=1;jettySize=auto;html=1;exitX=0.5;exitY=1;exitDx=0;exitDy=0;entryX=0.5;entryY=0;entryDx=0;entryDy=0;" parent="1" source="4Km1RIQBrni5Gd_6iD3i-131" target="4Km1RIQBrni5Gd_6iD3i-185" edge="1">
          <mxGeometry relative="1" as="geometry" />
        </mxCell>
        <mxCell id="4Km1RIQBrni5Gd_6iD3i-131" value="Fill Up the&amp;nbsp; Application Form" style="rounded=0;whiteSpace=wrap;html=1;" parent="1" vertex="1">
          <mxGeometry x="-153.44" y="980" width="72.5" height="40" as="geometry" />
        </mxCell>
        <mxCell id="4Km1RIQBrni5Gd_6iD3i-144" value="Yes" style="text;html=1;align=center;verticalAlign=middle;whiteSpace=wrap;rounded=0;" parent="1" vertex="1">
          <mxGeometry x="-347.24" y="950" width="22.12" height="20" as="geometry" />
        </mxCell>
        <mxCell id="4Km1RIQBrni5Gd_6iD3i-145" value="Yes" style="text;html=1;align=center;verticalAlign=middle;whiteSpace=wrap;rounded=0;" parent="1" vertex="1">
          <mxGeometry x="-225.74" y="950" width="22.12" height="20" as="geometry" />
        </mxCell>
        <mxCell id="4Km1RIQBrni5Gd_6iD3i-146" value="Yes" style="text;html=1;align=center;verticalAlign=middle;whiteSpace=wrap;rounded=0;" parent="1" vertex="1">
          <mxGeometry x="-112.24000000000001" y="950" width="22.12" height="20" as="geometry" />
        </mxCell>
        <mxCell id="4Km1RIQBrni5Gd_6iD3i-147" value="Yes" style="text;html=1;align=center;verticalAlign=middle;whiteSpace=wrap;rounded=0;" parent="1" vertex="1">
          <mxGeometry x="13.759999999999991" y="950" width="22.12" height="20" as="geometry" />
        </mxCell>
        <mxCell id="4Km1RIQBrni5Gd_6iD3i-148" value="Yes" style="text;html=1;align=center;verticalAlign=middle;whiteSpace=wrap;rounded=0;" parent="1" vertex="1">
          <mxGeometry x="149.63" y="950" width="22.12" height="20" as="geometry" />
        </mxCell>
        <mxCell id="4Km1RIQBrni5Gd_6iD3i-149" value="Yes" style="text;html=1;align=center;verticalAlign=middle;whiteSpace=wrap;rounded=0;" parent="1" vertex="1">
          <mxGeometry x="265.93999999999994" y="950" width="22.12" height="20" as="geometry" />
        </mxCell>
        <mxCell id="4Km1RIQBrni5Gd_6iD3i-150" value="No" style="text;html=1;align=center;verticalAlign=middle;whiteSpace=wrap;rounded=0;" parent="1" vertex="1">
          <mxGeometry x="-403" y="910" width="25" height="10" as="geometry" />
        </mxCell>
        <mxCell id="4Km1RIQBrni5Gd_6iD3i-166" style="edgeStyle=orthogonalEdgeStyle;rounded=0;orthogonalLoop=1;jettySize=auto;html=1;exitX=0.5;exitY=1;exitDx=0;exitDy=0;entryX=0.5;entryY=0;entryDx=0;entryDy=0;" parent="1" source="4Km1RIQBrni5Gd_6iD3i-161" target="4Km1RIQBrni5Gd_6iD3i-164" edge="1">
          <mxGeometry relative="1" as="geometry" />
        </mxCell>
        <mxCell id="4Km1RIQBrni5Gd_6iD3i-167" style="edgeStyle=orthogonalEdgeStyle;rounded=0;orthogonalLoop=1;jettySize=auto;html=1;exitX=0.5;exitY=1;exitDx=0;exitDy=0;entryX=0.5;entryY=0;entryDx=0;entryDy=0;" parent="1" source="4Km1RIQBrni5Gd_6iD3i-161" target="4Km1RIQBrni5Gd_6iD3i-165" edge="1">
          <mxGeometry relative="1" as="geometry">
            <Array as="points">
              <mxPoint x="-306" y="280" />
              <mxPoint x="-219" y="280" />
            </Array>
          </mxGeometry>
        </mxCell>
        <mxCell id="4Km1RIQBrni5Gd_6iD3i-169" style="edgeStyle=orthogonalEdgeStyle;rounded=0;orthogonalLoop=1;jettySize=auto;html=1;exitX=0.5;exitY=1;exitDx=0;exitDy=0;entryX=0.5;entryY=0;entryDx=0;entryDy=0;" parent="1" source="4Km1RIQBrni5Gd_6iD3i-161" target="4Km1RIQBrni5Gd_6iD3i-163" edge="1">
          <mxGeometry relative="1" as="geometry">
            <Array as="points">
              <mxPoint x="-306" y="280" />
              <mxPoint x="-406" y="280" />
            </Array>
          </mxGeometry>
        </mxCell>
        <mxCell id="4Km1RIQBrni5Gd_6iD3i-175" style="edgeStyle=orthogonalEdgeStyle;rounded=0;orthogonalLoop=1;jettySize=auto;html=1;exitX=0.5;exitY=1;exitDx=0;exitDy=0;entryX=0.5;entryY=0;entryDx=0;entryDy=0;" parent="1" source="4Km1RIQBrni5Gd_6iD3i-161" target="4Km1RIQBrni5Gd_6iD3i-173" edge="1">
          <mxGeometry relative="1" as="geometry">
            <Array as="points">
              <mxPoint x="-306" y="280" />
              <mxPoint x="-510" y="280" />
            </Array>
          </mxGeometry>
        </mxCell>
        <mxCell id="4Km1RIQBrni5Gd_6iD3i-161" value="View Customer&amp;nbsp;" style="rounded=0;whiteSpace=wrap;html=1;strokeColor=#006600;strokeWidth=1;" parent="1" vertex="1">
          <mxGeometry x="-351" y="220" width="90" height="40" as="geometry" />
        </mxCell>
        <mxCell id="4Km1RIQBrni5Gd_6iD3i-163" value="View Customer Info" style="rounded=0;whiteSpace=wrap;html=1;strokeColor=#006600;strokeWidth=1;" parent="1" vertex="1">
          <mxGeometry x="-450" y="300" width="88" height="30" as="geometry" />
        </mxCell>
        <mxCell id="4Km1RIQBrni5Gd_6iD3i-164" value="Update Customer" style="rounded=0;whiteSpace=wrap;html=1;strokeColor=#006600;strokeWidth=1;" parent="1" vertex="1">
          <mxGeometry x="-346.5" y="300" width="81" height="30" as="geometry" />
        </mxCell>
        <mxCell id="4Km1RIQBrni5Gd_6iD3i-165" value="Delete Customer" style="rounded=0;whiteSpace=wrap;html=1;strokeColor=#006600;strokeWidth=1;" parent="1" vertex="1">
          <mxGeometry x="-256" y="300" width="73" height="30" as="geometry" />
        </mxCell>
        <mxCell id="4Km1RIQBrni5Gd_6iD3i-172" value="View Total Loan Applications" style="rounded=0;whiteSpace=wrap;html=1;strokeColor=#006600;strokeWidth=1;" parent="1" vertex="1">
          <mxGeometry x="-470" y="220" width="100" height="40" as="geometry" />
        </mxCell>
        <mxCell id="4Km1RIQBrni5Gd_6iD3i-173" value="Downloan Applications" style="rounded=0;whiteSpace=wrap;html=1;strokeColor=#006600;strokeWidth=1;" parent="1" vertex="1">
          <mxGeometry x="-550" y="300" width="80" height="30" as="geometry" />
        </mxCell>
        <mxCell id="4Km1RIQBrni5Gd_6iD3i-174" value="View Total Credit Card Applications" style="rounded=0;whiteSpace=wrap;html=1;strokeColor=#006600;strokeWidth=1;" parent="1" vertex="1">
          <mxGeometry x="-580" y="220" width="100" height="40" as="geometry" />
        </mxCell>
        <mxCell id="4Km1RIQBrni5Gd_6iD3i-179" value="View Messeges" style="rounded=0;whiteSpace=wrap;html=1;strokeColor=#006600;strokeWidth=1;" parent="1" vertex="1">
          <mxGeometry x="-253" y="220" width="90" height="40" as="geometry" />
        </mxCell>
        <mxCell id="4Km1RIQBrni5Gd_6iD3i-195" style="edgeStyle=orthogonalEdgeStyle;rounded=0;orthogonalLoop=1;jettySize=auto;html=1;exitX=0.5;exitY=1;exitDx=0;exitDy=0;" parent="1" source="4Km1RIQBrni5Gd_6iD3i-185" target="4Km1RIQBrni5Gd_6iD3i-194" edge="1">
          <mxGeometry relative="1" as="geometry" />
        </mxCell>
        <mxCell id="4Km1RIQBrni5Gd_6iD3i-185" value="Confirmation" style="rounded=0;whiteSpace=wrap;html=1;" parent="1" vertex="1">
          <mxGeometry x="-26.810000000000002" y="1070" width="68" height="30" as="geometry" />
        </mxCell>
        <mxCell id="4Km1RIQBrni5Gd_6iD3i-194" value="END" style="rounded=0;whiteSpace=wrap;html=1;" parent="1" vertex="1">
          <mxGeometry x="-26.81" y="1120" width="68" height="30" as="geometry" />
        </mxCell>
        <mxCell id="4Km1RIQBrni5Gd_6iD3i-203" style="edgeStyle=orthogonalEdgeStyle;rounded=0;orthogonalLoop=1;jettySize=auto;html=1;exitX=0.5;exitY=1;exitDx=0;exitDy=0;entryX=0.5;entryY=0;entryDx=0;entryDy=0;" parent="1" source="4Km1RIQBrni5Gd_6iD3i-197" target="4Km1RIQBrni5Gd_6iD3i-199" edge="1">
          <mxGeometry relative="1" as="geometry" />
        </mxCell>
        <mxCell id="4Km1RIQBrni5Gd_6iD3i-197" value="Compare and Apply for Best Credit Card Offers" style="rounded=0;whiteSpace=wrap;html=1;strokeColor=#006600;" parent="1" vertex="1">
          <mxGeometry x="330" y="690" width="110" height="50" as="geometry" />
        </mxCell>
        <mxCell id="4Km1RIQBrni5Gd_6iD3i-204" style="edgeStyle=orthogonalEdgeStyle;rounded=0;orthogonalLoop=1;jettySize=auto;html=1;exitX=0.5;exitY=1;exitDx=0;exitDy=0;entryX=0.5;entryY=0;entryDx=0;entryDy=0;" parent="1" source="4Km1RIQBrni5Gd_6iD3i-199" target="4Km1RIQBrni5Gd_6iD3i-200" edge="1">
          <mxGeometry relative="1" as="geometry" />
        </mxCell>
        <mxCell id="4Km1RIQBrni5Gd_6iD3i-199" value="Apply" style="rounded=0;whiteSpace=wrap;html=1;strokeColor=#006600;" parent="1" vertex="1">
          <mxGeometry x="350" y="770" width="59" height="30" as="geometry" />
        </mxCell>
        <mxCell id="4Km1RIQBrni5Gd_6iD3i-205" style="edgeStyle=orthogonalEdgeStyle;rounded=0;orthogonalLoop=1;jettySize=auto;html=1;exitX=0.5;exitY=1;exitDx=0;exitDy=0;entryX=0.5;entryY=0;entryDx=0;entryDy=0;" parent="1" source="4Km1RIQBrni5Gd_6iD3i-200" target="4Km1RIQBrni5Gd_6iD3i-201" edge="1">
          <mxGeometry relative="1" as="geometry" />
        </mxCell>
        <mxCell id="4Km1RIQBrni5Gd_6iD3i-200" value="Eligibility Check" style="rounded=0;whiteSpace=wrap;html=1;strokeColor=#006600;" parent="1" vertex="1">
          <mxGeometry x="344" y="840" width="69.5" height="40" as="geometry" />
        </mxCell>
        <mxCell id="4Km1RIQBrni5Gd_6iD3i-207" style="edgeStyle=orthogonalEdgeStyle;rounded=0;orthogonalLoop=1;jettySize=auto;html=1;exitX=0.5;exitY=1;exitDx=0;exitDy=0;entryX=0.5;entryY=0;entryDx=0;entryDy=0;" parent="1" source="4Km1RIQBrni5Gd_6iD3i-201" target="4Km1RIQBrni5Gd_6iD3i-206" edge="1">
          <mxGeometry relative="1" as="geometry" />
        </mxCell>
        <mxCell id="4Km1RIQBrni5Gd_6iD3i-209" style="edgeStyle=orthogonalEdgeStyle;rounded=0;orthogonalLoop=1;jettySize=auto;html=1;exitX=0;exitY=0.5;exitDx=0;exitDy=0;entryX=0;entryY=1;entryDx=0;entryDy=0;" parent="1" source="4Km1RIQBrni5Gd_6iD3i-201" target="4Km1RIQBrni5Gd_6iD3i-197" edge="1">
          <mxGeometry relative="1" as="geometry" />
        </mxCell>
        <mxCell id="4Km1RIQBrni5Gd_6iD3i-201" value="Eligible?" style="rhombus;whiteSpace=wrap;html=1;strokeColor=#006600;" parent="1" vertex="1">
          <mxGeometry x="350" y="900" width="57.38" height="60" as="geometry" />
        </mxCell>
        <mxCell id="4Km1RIQBrni5Gd_6iD3i-208" style="edgeStyle=orthogonalEdgeStyle;rounded=0;orthogonalLoop=1;jettySize=auto;html=1;exitX=0.5;exitY=1;exitDx=0;exitDy=0;entryX=0.5;entryY=0;entryDx=0;entryDy=0;" parent="1" source="4Km1RIQBrni5Gd_6iD3i-206" target="4Km1RIQBrni5Gd_6iD3i-185" edge="1">
          <mxGeometry relative="1" as="geometry" />
        </mxCell>
        <mxCell id="4Km1RIQBrni5Gd_6iD3i-206" value="Fill Up the&amp;nbsp; Application Form" style="rounded=0;whiteSpace=wrap;html=1;strokeColor=#006600;" parent="1" vertex="1">
          <mxGeometry x="342.13000000000005" y="980" width="74.75" height="40" as="geometry" />
        </mxCell>
        <mxCell id="4Km1RIQBrni5Gd_6iD3i-210" value="Yes" style="text;html=1;align=center;verticalAlign=middle;whiteSpace=wrap;rounded=0;" parent="1" vertex="1">
          <mxGeometry x="390.99999999999994" y="950" width="22.12" height="20" as="geometry" />
        </mxCell>
        <mxCell id="4Km1RIQBrni5Gd_6iD3i-211" value="No" style="text;html=1;align=center;verticalAlign=middle;whiteSpace=wrap;rounded=0;" parent="1" vertex="1">
          <mxGeometry x="-281" y="910" width="25" height="10" as="geometry" />
        </mxCell>
        <mxCell id="4Km1RIQBrni5Gd_6iD3i-212" value="No" style="text;html=1;align=center;verticalAlign=middle;whiteSpace=wrap;rounded=0;" parent="1" vertex="1">
          <mxGeometry x="-163" y="910" width="25" height="10" as="geometry" />
        </mxCell>
        <mxCell id="4Km1RIQBrni5Gd_6iD3i-213" value="No" style="text;html=1;align=center;verticalAlign=middle;whiteSpace=wrap;rounded=0;" parent="1" vertex="1">
          <mxGeometry x="-37" y="910" width="25" height="10" as="geometry" />
        </mxCell>
        <mxCell id="4Km1RIQBrni5Gd_6iD3i-214" value="No" style="text;html=1;align=center;verticalAlign=middle;whiteSpace=wrap;rounded=0;" parent="1" vertex="1">
          <mxGeometry x="87" y="910" width="25" height="10" as="geometry" />
        </mxCell>
        <mxCell id="4Km1RIQBrni5Gd_6iD3i-215" value="No" style="text;html=1;align=center;verticalAlign=middle;whiteSpace=wrap;rounded=0;" parent="1" vertex="1">
          <mxGeometry x="207" y="910" width="25" height="10" as="geometry" />
        </mxCell>
        <mxCell id="4Km1RIQBrni5Gd_6iD3i-216" value="No" style="text;html=1;align=center;verticalAlign=middle;whiteSpace=wrap;rounded=0;" parent="1" vertex="1">
          <mxGeometry x="330" y="910" width="25" height="10" as="geometry" />
        </mxCell>
        <mxCell id="yfd1vpzRIhjMs_olI5XI-32" value="END" style="rounded=0;whiteSpace=wrap;html=1;strokeColor=#006600;" parent="1" vertex="1">
          <mxGeometry x="-26.81" y="1120" width="68" height="30" as="geometry" />
        </mxCell>
        <mxCell id="yfd1vpzRIhjMs_olI5XI-33" value="Confirmation" style="rounded=0;whiteSpace=wrap;html=1;strokeColor=#006600;" parent="1" vertex="1">
          <mxGeometry x="-26.810000000000002" y="1070" width="68" height="30" as="geometry" />
        </mxCell>
        <mxCell id="yfd1vpzRIhjMs_olI5XI-34" value="Fill Up the&amp;nbsp; Application Form" style="rounded=0;whiteSpace=wrap;html=1;strokeColor=#006600;" parent="1" vertex="1">
          <mxGeometry x="-390.38" y="980" width="74.75" height="40" as="geometry" />
        </mxCell>
        <mxCell id="yfd1vpzRIhjMs_olI5XI-35" value="Fill Up the&amp;nbsp; Application Form" style="rounded=0;whiteSpace=wrap;html=1;strokeColor=#006600;" parent="1" vertex="1">
          <mxGeometry x="-269.25" y="980" width="72.5" height="40" as="geometry" />
        </mxCell>
        <mxCell id="yfd1vpzRIhjMs_olI5XI-36" value="Fill Up the&amp;nbsp; Application Form" style="rounded=0;whiteSpace=wrap;html=1;strokeColor=#006600;" parent="1" vertex="1">
          <mxGeometry x="-153.44" y="980" width="72.5" height="40" as="geometry" />
        </mxCell>
        <mxCell id="yfd1vpzRIhjMs_olI5XI-37" value="Fill Up the&amp;nbsp; Application Form" style="rounded=0;whiteSpace=wrap;html=1;strokeColor=#006600;" parent="1" vertex="1">
          <mxGeometry x="-29.560000000000002" y="980" width="73.5" height="40" as="geometry" />
        </mxCell>
        <mxCell id="yfd1vpzRIhjMs_olI5XI-79" value="Fill Up the&amp;nbsp; Application Form" style="rounded=0;whiteSpace=wrap;html=1;strokeColor=#006600;strokeWidth=1;shadow=0;sketch=0;perimeterSpacing=1;" parent="1" vertex="1">
          <mxGeometry x="100.42999999999995" y="980" width="74.75" height="40" as="geometry" />
        </mxCell>
      </root>
    </mxGraphModel>
  </diagram>
</mxfile>
